<?xml version="1.0" encoding="UTF-8"?>
<svg version="1.1" xmlns="http://www.w3.org/2000/svg" width="200" height="200">
<path d="M0 0 C66 0 132 0 200 0 C200 66 200 132 200 200 C134 200 68 200 0 200 C0 134 0 68 0 0 Z " fill="#FDFEFE" transform="translate(0,0)"/>
<path d="M0 0 C0.99 0 1.98 0 3 0 C3 1.32 3 2.64 3 4 C5.31 4 7.62 4 10 4 C10.33 2.68 10.66 1.36 11 0 C11.66 0.33 12.32 0.66 13 1 C13 8.92 13 16.84 13 25 C15.64 25 18.28 25 21 25 C20.98952637 24.34402832 20.97905273 23.68805664 20.96826172 23.01220703 C20.92677497 20.04984342 20.90069738 17.08754084 20.875 14.125 C20.85824219 13.09246094 20.84148438 12.05992187 20.82421875 10.99609375 C20.81777344 10.00996094 20.81132812 9.02382812 20.8046875 8.0078125 C20.79421387 7.09660645 20.78374023 6.18540039 20.77294922 5.24658203 C21 3 21 3 23 1 C23 8.92 23 16.84 23 25 C25.64 25 28.28 25 31 25 C31 18.4 31 11.8 31 5 C31.66 5 32.32 5 33 5 C33 11.6 33 18.2 33 25 C35.64 25 38.28 25 41 25 C41 18.4 41 11.8 41 5 C41.66 5 42.32 5 43 5 C43 11.93 43 18.86 43 26 C45.31 26 47.62 26 50 26 C50.495 27.485 50.495 27.485 51 29 C54.3 29 57.6 29 61 29 C61 27.68 61 26.36 61 25 C67.90275941 24.04536306 74.08565518 24.11101281 81 25 C81 18.4 81 11.8 81 5 C81.33 5 81.66 5 82 5 C82.01417969 6.02480469 82.02835937 7.04960937 82.04296875 8.10546875 C82.08989016 9.46618971 82.13813744 10.82686541 82.1875 12.1875 C82.19330078 12.86103516 82.19910156 13.53457031 82.20507812 14.22851562 C82.37152798 18.01987339 82.91604527 19.88991949 85.234375 22.9296875 C88.11184668 25.08372704 89.53027311 25.71366491 93.0625 25.9375 C93.89910156 26.00839844 94.73570313 26.07929688 95.59765625 26.15234375 C98.22725738 25.98558856 99.70364182 25.22635298 102 24 C103.6777567 24.27206865 105.34450469 24.61500109 107 25 C110.84824836 25.20990446 113.59287383 25.14092829 117.25 23.875 C118.1575 23.58625 119.065 23.2975 120 23 C120.99 23.66 121.98 24.32 123 25 C125.37607867 25.35420761 125.37607867 25.35420761 127.9375 25.3125 C129.21947266 25.33763672 129.21947266 25.33763672 130.52734375 25.36328125 C133.45313869 24.93342512 134.72657816 23.82068473 137 22 C139.25 22.3125 139.25 22.3125 141 23 C141 23.99 141 24.98 141 26 C148.59 26 156.18 26 164 26 C164 25.01 164 24.02 164 23 C164.94875 23.165 165.8975 23.33 166.875 23.5 C170.00088545 23.93379635 173.09522676 24.15748466 176.25 24.25 C177.08015625 24.27578125 177.9103125 24.3015625 178.765625 24.328125 C181.51025538 23.92506739 182.30737078 23.14813801 184 21 C185.17574711 18.90010348 185.17574711 18.90010348 186 17 C186.99 17 187.98 17 189 17 C189 31.85 189 46.7 189 62 C123 62 57 62 -11 62 C-11 44.51 -11 27.02 -11 9 C-9.02 9.99 -9.02 9.99 -7 11 C-6.27734375 13.75 -6.27734375 13.75 -5.9375 17 C-5.65423042 20.18345602 -5.65423042 20.18345602 -5 23 C-1.90219052 25.06520632 -1.0459519 25.29477024 2.5 25.3125 C3.66015625 25.33763672 3.66015625 25.33763672 4.84375 25.36328125 C7.56039604 24.90558545 8.40966544 24.23143818 10 22 C10.68886714 18.93454122 10.58145711 16.08117926 10 13 C7.66942465 10.00354598 5.23610903 8.17314662 2.1875 5.9375 C1.465625 5.298125 0.74375 4.65875 0 4 C0 2.68 0 1.36 0 0 Z " fill="#FEFEFE" transform="translate(11,138)"/>
<path d="M0 0 C0.66 0.99 1.32 1.98 2 3 C3.6540731 4.09999468 3.6540731 4.09999468 5.5 5 C8.42886089 6.4892513 9.05564158 7.08346237 11 10 C10.6875 13.25 10.6875 13.25 10 17 C9.855625 18.155 9.71125 19.31 9.5625 20.5 C8.97653677 24.14599341 8.07937429 27.474044 7 31 C5.68 30.67 4.36 30.34 3 30 C3 29.34 3 28.68 3 28 C2.34 28 1.68 28 1 28 C0.34 29.98 -0.32 31.96 -1 34 C-2.43640171 34.19573608 -3.87419504 34.38127816 -5.3125 34.5625 C-6.51326172 34.71912109 -6.51326172 34.71912109 -7.73828125 34.87890625 C-10 35 -10 35 -13 34 C-12.85691406 35.04800781 -12.85691406 35.04800781 -12.7109375 36.1171875 C-12.60007813 37.02726562 -12.48921875 37.93734375 -12.375 38.875 C-12.25898437 39.77992187 -12.14296875 40.68484375 -12.0234375 41.6171875 C-12.01183594 42.79667969 -12.01183594 42.79667969 -12 44 C-14.31203927 46.31203927 -14.93214375 46.27275091 -18.0625 46.5 C-20.0115625 46.7475 -20.0115625 46.7475 -22 47 C-23.4783226 49.95664519 -23.06032783 52.74229737 -23 56 C-22.34 56 -21.68 56 -21 56 C-20.34 55.34 -19.68 54.68 -19 54 C-19 54.66 -19 55.32 -19 56 C-16.69 56 -14.38 56 -12 56 C-11.67 53.69 -11.34 51.38 -11 49 C-8.6875 47.875 -8.6875 47.875 -6 47 C-5.01 47.66 -4.02 48.32 -3 49 C-2.5625 51.375 -2.5625 51.375 -3 54 C-4.87027485 56.24432982 -6.38886404 57.69443202 -9 59 C-9.99 59 -10.98 59 -12 59 C-12.66 63.95 -13.32 68.9 -14 74 C-13.01 74 -12.02 74 -11 74 C-10.34 74 -9.68 74 -9 74 C-9.33 72.68 -9.66 71.36 -10 70 C-9.34 70 -8.68 70 -8 70 C-8.33 69.34 -8.66 68.68 -9 68 C-9 66.68 -9 65.36 -9 64 C-5.88742431 64 -3.89234315 64.17361624 -1 65 C-0.67 66.32 -0.34 67.64 0 69 C0 65.04 0 61.08 0 57 C1.65 57 3.3 57 5 57 C5 55.68 5 54.36 5 53 C6.32 53 7.64 53 9 53 C9.33 51.35 9.66 49.7 10 48 C11.98 48 13.96 48 16 48 C17.125 52.75 17.125 52.75 16 55 C15.34 55 14.68 55 14 55 C14 55.66 14 56.32 14 57 C13.34 57 12.68 57 12 57 C13.65296434 61.09305456 15.13546142 64.58983503 18 68 C17.01 68.495 17.01 68.495 16 69 C16.75150023 72.27773504 16.75150023 72.27773504 20 74 C19.505 75.485 19.505 75.485 19 77 C19 77.66 19 78.32 19 79 C19 83.33333333 19 87.66666667 19 92 C16.69 92 14.38 92 12 92 C12 90.68 12 89.36 12 88 C11.01 88 10.02 88 9 88 C10.21215672 92.7139428 12.52376313 94.38626877 16.44140625 96.88671875 C18 98 18 98 19 100 C19.40667338 103.71234704 19.48857029 107.29360467 19 111 C16.21036266 113.95870627 14.45937732 113.967763 10.4375 114.25 C7 114 7 114 4.8125 113.375 C2.93867507 112.78179779 2.93867507 112.78179779 1.2265625 113.984375 C-2.98136459 115.90378034 -7.58370869 114.92251419 -12 114 C-14.94912835 112.17154043 -16.46472177 111.07055645 -18 108 C-18.33 109.65 -18.66 111.3 -19 113 C-21.97 113 -24.94 113 -28 113 C-28 103.1 -28 93.2 -28 83 C-24.535 82.01 -24.535 82.01 -21 81 C-20.505 79.515 -20.505 79.515 -20 78 C-19.34 78 -18.68 78 -18 78 C-18.34444881 75.52733235 -18.34444881 75.52733235 -19 73 C-19.99 72.505 -19.99 72.505 -21 72 C-23.16343011 74.03268602 -23.16343011 74.03268602 -25 77 C-29.75 76.25 -29.75 76.25 -32 74 C-33.485 74.495 -33.485 74.495 -35 75 C-35 74.34 -35 73.68 -35 73 C-38.465 72.505 -38.465 72.505 -42 72 C-42.33 73.32 -42.66 74.64 -43 76 C-45.475 76.495 -45.475 76.495 -48 77 C-47.125 71.25 -47.125 71.25 -46 69 C-46.61875 68.731875 -47.2375 68.46375 -47.875 68.1875 C-50 67 -50 67 -52 64 C-55.55672179 62.7811879 -55.55672179 62.7811879 -59 62 C-59.625 60.125 -59.625 60.125 -60 58 C-58 56 -58 56 -54.875 55.875 C-53.92625 55.91625 -52.9775 55.9575 -52 56 C-51.67 56.66 -51.34 57.32 -51 58 C-51.061875 56.741875 -51.12375 55.48375 -51.1875 54.1875 C-51.18060372 50.29799613 -51.18060372 50.29799613 -49.75 47.9375 C-48 47 -48 47 -46 47.375 C-45.34 47.58125 -44.68 47.7875 -44 48 C-42.515 47.505 -42.515 47.505 -41 47 C-41.226875 45.741875 -41.45375 44.48375 -41.6875 43.1875 C-42.14878398 39.29756795 -42.14878398 39.29756795 -41 37 C-38.00174798 35.50087399 -35.29107031 35.813713 -32 36 C-31.7763932 33.0745356 -31.7763932 33.0745356 -33 31 C-33.3125 28.0625 -33.3125 28.0625 -33 25 C-31.1875 23.125 -31.1875 23.125 -29 22 C-28.01 22 -27.02 22 -26 22 C-25.98582031 21.19175781 -25.97164062 20.38351563 -25.95703125 19.55078125 C-25.56690595 10.80986564 -25.56690595 10.80986564 -22.8125 6.875 C-19.88969412 4.92646275 -17.38932245 3.88417107 -14 3 C-13.01 2.67 -12.02 2.34 -11 2 C-9.865625 2.020625 -8.73125 2.04125 -7.5625 2.0625 C-4.23599651 2.00414029 -2.73535592 1.75062779 0 0 Z M-13 76 C-12 78 -12 78 -12 78 Z M14 61 C16 62 16 62 16 62 Z M21 69 C22.98 69.495 22.98 69.495 25 70 C24.67 71.32 24.34 72.64 24 74 C22.68 74 21.36 74 20 74 C20.33 72.35 20.66 70.7 21 69 Z " fill="#EFF8FB" transform="translate(111,50)"/>
<path d="M0 0 C2.6702106 3.29325975 3 4.68141026 3 9 C3.66 9.33 4.32 9.66 5 10 C5 10.99 5 11.98 5 13 C5.804375 13.309375 6.60875 13.61875 7.4375 13.9375 C10 15 10 15 11 16 C10.71269945 18.33944736 10.38063221 20.6739143 10 23 C11.093125 23.103125 12.18625 23.20625 13.3125 23.3125 C17 24 17 24 18.875 25.3125 C20.16955403 27.25433104 20.77473012 28.67221128 21 31 C19 33 19 33 15.375 33.125 C14.26125 33.08375 13.1475 33.0425 12 33 C13.01160848 37.39314793 13.01160848 37.39314793 16.125 40.375 C16.74375 40.58125 17.3625 40.7875 18 41 C17.67 42.65 17.34 44.3 17 46 C15.68 45.67 14.36 45.34 13 45 C13 43.35 13 41.7 13 40 C11.54052295 40.06006078 10.08220728 40.1488689 8.625 40.25 C7.81289062 40.29640625 7.00078125 40.3428125 6.1640625 40.390625 C3.81161073 40.7922092 3.81161073 40.7922092 2.7109375 43.046875 C2.47632813 43.69140625 2.24171875 44.3359375 2 45 C0.2925002 43.71937515 -1.37373596 42.38232443 -3 41 C-3 40.34 -3 39.68 -3 39 C-3.99 38.505 -3.99 38.505 -5 38 C-5 36.68 -5 35.36 -5 34 C-4.34 34 -3.68 34 -3 34 C-3 33.34 -3 32.68 -3 32 C-2.34 32 -1.68 32 -1 32 C-1 30.02 -1 28.04 -1 26 C-2.98 26 -4.96 26 -7 26 C-7.1546875 26.928125 -7.1546875 26.928125 -7.3125 27.875 C-8 30 -8 30 -11 32 C-11.33 32.66 -11.66 33.32 -12 34 C-13.65 34 -15.3 34 -17 34 C-17 37.96 -17 41.92 -17 46 C-17.66 45.67 -18.32 45.34 -19 45 C-18.67 44.01 -18.34 43.02 -18 42 C-21.465 41.505 -21.465 41.505 -25 41 C-25 44.76687864 -24.76462683 45.91190305 -23 49 C-23.66 49 -24.32 49 -25 49 C-25.33 48.67 -25.66 48.34 -26 48 C-26 48.99 -26 49.98 -26 51 C-26.66 51 -27.32 51 -28 51 C-28.33 51.66 -28.66 52.32 -29 53 C-29.99 52.34 -30.98 51.68 -32 51 C-31.34 46.05 -30.68 41.1 -30 36 C-27.525 35.505 -27.525 35.505 -25 35 C-22.60371845 33.35380651 -22.60371845 33.35380651 -21 31 C-20.66501699 28.33165034 -20.66501699 28.33165034 -21 26 C-24.04913228 24.98888907 -24.04913228 24.98888907 -27 26 C-27.46523063 27.89533342 -27.46523063 27.89533342 -27.625 30.0625 C-27.74875 31.361875 -27.8725 32.66125 -28 34 C-30.01822917 33.70703125 -32.03645833 33.4140625 -34.0546875 33.12109375 C-36.08140667 32.8315703 -36.08140667 32.8315703 -38 34 C-38.66 33.67 -39.32 33.34 -40 33 C-40.484375 31.22265625 -40.484375 31.22265625 -40.75 29.0625 C-40.84796875 28.35222656 -40.9459375 27.64195313 -41.046875 26.91015625 C-41 25 -41 25 -39 23 C-37.08984375 22.62109375 -37.08984375 22.62109375 -34.9375 22.4375 C-31.23263383 22.44086552 -31.23263383 22.44086552 -30 21 C-29.92794489 19.31391034 -29.91613932 17.62499341 -29.9375 15.9375 C-29.95103516 14.55884766 -29.95103516 14.55884766 -29.96484375 13.15234375 C-29.97644531 12.44207031 -29.98804687 11.73179688 -30 11 C-29.07767578 11.01740234 -29.07767578 11.01740234 -28.13671875 11.03515625 C-26.92435547 11.04869141 -26.92435547 11.04869141 -25.6875 11.0625 C-24.88699219 11.07410156 -24.08648437 11.08570312 -23.26171875 11.09765625 C-20.83138666 11.09657855 -20.83138666 11.09657855 -18 10 C-17.67 7.69 -17.34 5.38 -17 3 C-16.67 3.66 -16.34 4.32 -16 5 C-15.34 5 -14.68 5 -14 5 C-13.67 5.66 -13.34 6.32 -13 7 C-12.01 7.33 -11.02 7.66 -10 8 C-10.12375 6.6078125 -10.12375 6.6078125 -10.25 5.1875 C-10 2 -10 2 -8.375 0.0625 C-5.09618618 -1.40433776 -3.37996615 -1.15062678 0 0 Z " fill="#F4FBFC" transform="translate(128,73)"/>
<path d="M0 0 C0.88563089 3.79074537 1.11681301 7.28695898 1.09765625 11.17578125 C1.09443359 12.33271484 1.09121094 13.48964844 1.08789062 14.68164062 C1.07951172 15.87982422 1.07113281 17.07800781 1.0625 18.3125 C1.05798828 19.53001953 1.05347656 20.74753906 1.04882812 22.00195312 C1.03706578 25.00135226 1.02062826 28.00065089 1 31 C-1.64 31 -4.28 31 -7 31 C-7.33 23.74 -7.66 16.48 -8 9 C-8.99 9.495 -8.99 9.495 -10 10 C-12.3329866 10.04022391 -14.66706666 10.04320247 -17 10 C-17 8.68 -17 7.36 -17 6 C-17.99 6 -18.98 6 -20 6 C-18.81826157 11.02238831 -15.82156838 12.8962488 -11.77734375 15.66796875 C-10 17 -10 17 -9 19 C-8.50213891 23.22773846 -8.32606255 26.79863324 -10.4375 30.5625 C-14.27279967 32.71400957 -17.70548846 32.62365149 -22 32 C-24.5 31 -24.5 31 -26 29 C-26.61887316 26.29509748 -26.81713013 23.78876552 -27 21 C-24.69 21 -22.38 21 -20 21 C-19.87625 21.804375 -19.7525 22.60875 -19.625 23.4375 C-19.41875 24.283125 -19.2125 25.12875 -19 26 C-18.34 26.33 -17.68 26.66 -17 27 C-17.78067632 22.20650029 -17.78067632 22.20650029 -20.65625 18.4921875 C-21.89640957 17.64338976 -23.15796142 16.8247761 -24.44140625 16.04296875 C-26 15 -26 15 -27 13 C-27.203125 10.94140625 -27.203125 10.94140625 -27.25 8.5625 C-27.28867187 7.38880859 -27.28867187 7.38880859 -27.328125 6.19140625 C-27 4 -27 4 -25.796875 2.234375 C-23.41955931 0.60126248 -21.86412052 0.63209291 -19 0.6875 C-18.13375 0.69136719 -17.2675 0.69523438 -16.375 0.69921875 C-14 1 -14 1 -11 3 C-10.67 2.505 -10.34 2.01 -10 1.5 C-6.82427253 -0.88179561 -3.89753934 -0.19168226 0 0 Z " fill="#4EC1FB" transform="translate(31,132)"/>
<path d="M0 0 C3 0 6 0 9 0 C9.804375 -0.04125 10.60875 -0.0825 11.4375 -0.125 C14 0 14 0 17 2 C17.66 1.34 18.32 0.68 19 0 C21.5 -0.25 21.5 -0.25 24 0 C26 2 26 2 26.22705078 4.33837891 C26.21657715 5.29147949 26.20610352 6.24458008 26.1953125 7.2265625 C26.18886719 8.2578125 26.18242188 9.2890625 26.17578125 10.3515625 C26.15902344 11.43179688 26.14226563 12.51203125 26.125 13.625 C26.11597656 14.71296875 26.10695313 15.8009375 26.09765625 16.921875 C26.07403409 19.61480152 26.04109556 22.30729255 26 25 C23.69 25 21.38 25 19 25 C19 18.4 19 11.8 19 5 C18.34 5 17.68 5 17 5 C17 11.6 17 18.2 17 25 C14.36 25 11.72 25 9 25 C9 18.4 9 11.8 9 5 C8.34 5 7.68 5 7 5 C7 11.6 7 18.2 7 25 C4.69 25 2.38 25 0 25 C0 16.75 0 8.5 0 0 Z " fill="#4FC2FC" transform="translate(35,138)"/>
<path d="M0 0 C0.33 0.66 0.66 1.32 1 2 C1.66 2 2.32 2 3 2 C3.33 2.66 3.66 3.32 4 4 C4.99 4.66 5.98 5.32 7 6 C7 6.99 7 7.98 7 9 C5.865625 9.474375 4.73125 9.94875 3.5625 10.4375 C0.24259834 11.63622083 0.24259834 11.63622083 -1 13 C-1.33431349 17.75905082 -1.12561477 22.35683907 0 27 C0 32.33333333 0 37.66666667 0 43 C-0.66 42.67 -1.32 42.34 -2 42 C-1.67 41.01 -1.34 40.02 -1 39 C-4.465 38.505 -4.465 38.505 -8 38 C-8 41.76687864 -7.76462683 42.91190305 -6 46 C-6.66 46 -7.32 46 -8 46 C-8.33 45.67 -8.66 45.34 -9 45 C-9 45.99 -9 46.98 -9 48 C-9.66 48 -10.32 48 -11 48 C-11.33 48.66 -11.66 49.32 -12 50 C-12.99 49.34 -13.98 48.68 -15 48 C-14.34 43.05 -13.68 38.1 -13 33 C-10.525 32.505 -10.525 32.505 -8 32 C-5.60371845 30.35380651 -5.60371845 30.35380651 -4 28 C-3.66501699 25.33165034 -3.66501699 25.33165034 -4 23 C-7.04913228 21.98888907 -7.04913228 21.98888907 -10 23 C-10.46523063 24.89533342 -10.46523063 24.89533342 -10.625 27.0625 C-10.74875 28.361875 -10.8725 29.66125 -11 31 C-13.01822917 30.70703125 -15.03645833 30.4140625 -17.0546875 30.12109375 C-19.08140667 29.8315703 -19.08140667 29.8315703 -21 31 C-21.66 30.67 -22.32 30.34 -23 30 C-23.484375 28.22265625 -23.484375 28.22265625 -23.75 26.0625 C-23.84796875 25.35222656 -23.9459375 24.64195313 -24.046875 23.91015625 C-24 22 -24 22 -22 20 C-20.08984375 19.62109375 -20.08984375 19.62109375 -17.9375 19.4375 C-14.23263383 19.44086552 -14.23263383 19.44086552 -13 18 C-12.92794489 16.31391034 -12.91613932 14.62499341 -12.9375 12.9375 C-12.95103516 11.55884766 -12.95103516 11.55884766 -12.96484375 10.15234375 C-12.97644531 9.44207031 -12.98804687 8.73179688 -13 8 C-12.07767578 8.01740234 -12.07767578 8.01740234 -11.13671875 8.03515625 C-9.92435547 8.04869141 -9.92435547 8.04869141 -8.6875 8.0625 C-7.88699219 8.07410156 -7.08648437 8.08570312 -6.26171875 8.09765625 C-3.83138666 8.09657855 -3.83138666 8.09657855 -1 7 C-0.67 4.69 -0.34 2.38 0 0 Z M0 22 C2 23 2 23 2 23 Z " fill="#F8FBFB" transform="translate(111,76)"/>
<path d="M0 0 C4.62 0 9.24 0 14 0 C17 3 17 3 17.37231445 5.14477539 C17.3693335 5.95422607 17.36635254 6.76367676 17.36328125 7.59765625 C17.36263672 8.48130859 17.36199219 9.36496094 17.36132812 10.27539062 C17.34521484 11.19513672 17.32910156 12.11488281 17.3125 13.0625 C17.31733398 14.44791992 17.31733398 14.44791992 17.32226562 15.86132812 C17.26705173 22.73294827 17.26705173 22.73294827 15 25 C11.9375 25.1875 11.9375 25.1875 9 25 C8.67 24.67 8.34 24.34 8 24 C7.67 25.32 7.34 26.64 7 28 C4.69 28 2.38 28 0 28 C0 18.76 0 9.52 0 0 Z " fill="#47BEFC" transform="translate(64,138)"/>
<path d="M0 0 C2.625 1.6875 2.625 1.6875 4 4 C4.25 6.75 4.25 6.75 4 9 C1.69 9 -0.62 9 -3 9 C-3 7.68 -3 6.36 -3 5 C-3.99 5 -4.98 5 -6 5 C-4.78784328 9.7139428 -2.47623687 11.38626877 1.44140625 13.88671875 C3 15 3 15 4 17 C4.40667338 20.71234704 4.48857029 24.29360467 4 28 C1.26314475 30.90272527 -0.57678262 30.94709783 -4.5 31.4375 C-8.67091421 30.91613572 -10.28510901 30.20850753 -13 27 C-13.3125 23.25 -13.3125 23.25 -13 20 C-10.69 20 -8.38 20 -6 20 C-5.87625 20.804375 -5.7525 21.60875 -5.625 22.4375 C-5.41875 23.283125 -5.2125 24.12875 -5 25 C-4.34 25.33 -3.68 25.66 -3 26 C-3.78067632 21.20650029 -3.78067632 21.20650029 -6.65625 17.4921875 C-7.89640957 16.64338976 -9.15796142 15.8247761 -10.44140625 15.04296875 C-12 14 -12 14 -13 12 C-13.203125 9.94140625 -13.203125 9.94140625 -13.25 7.5625 C-13.28867188 6.38880859 -13.28867188 6.38880859 -13.328125 5.19140625 C-13 3 -13 3 -11.79296875 1.2421875 C-8.29111351 -1.18393443 -4.06469036 -0.59872689 0 0 Z " fill="#4CC0FB" transform="translate(126,133)"/>
<path d="M0 0 C4.6 2.2 4.6 2.2 6 5 C6.17721577 7.45487423 6.27736821 9.85561664 6.3125 12.3125 C6.34988281 13.62863281 6.38726562 14.94476563 6.42578125 16.30078125 C5.94219336 20.50222832 4.96928843 22.06376487 2 25 C-0.85324437 26.42662219 -2.83454549 26.31033868 -6 26 C-8.6640625 24.54296875 -8.6640625 24.54296875 -11 22 C-11.71788792 18.98396537 -11.65370179 16.08607141 -11.5625 13 C-11.57345703 12.19304687 -11.58441406 11.38609375 -11.59570312 10.5546875 C-11.54830523 6.7249377 -11.45516241 4.63390645 -9.1796875 1.46484375 C-5.98166284 -0.68436637 -3.77098822 -0.46310382 0 0 Z " fill="#4EC1FB" transform="translate(144,138)"/>
<path d="M0 0 C4.6 2.2 4.6 2.2 6 5 C6.13415472 7.6723621 6.04318541 10.32250488 6 13 C2.7 13 -0.6 13 -4 13 C-4 15.64 -4 18.28 -4 21 C-3.01 21 -2.02 21 -1 21 C-1 19.02 -1 17.04 -1 15 C1.31 15 3.62 15 6 15 C6.30719041 18.37909451 6.34529892 20.40357459 4.625 23.375 C0.67739518 25.81875537 -3.47082499 25.8392962 -8 25 C-9.96994253 23.45303669 -10.8851852 22.5482667 -11.40405273 20.07055664 C-11.43601105 17.73337398 -11.4578253 15.3999092 -11.4375 13.0625 C-11.45748047 12.25103516 -11.47746094 11.43957031 -11.49804688 10.60351562 C-11.49488609 6.75051532 -11.47040602 4.65897394 -9.1875 1.4609375 C-5.98306657 -0.67916626 -3.7724032 -0.46327759 0 0 Z " fill="#4AC0FA" transform="translate(105,138)"/>
<path d="M0 0 C2 1.5625 2 1.5625 3 4 C3.22365373 6.72025348 3.13700302 9.25993957 3 12 C-0.3 12 -3.6 12 -7 12 C-7 14.64 -7 17.28 -7 20 C-6.01 20 -5.02 20 -4 20 C-4 18.02 -4 16.04 -4 14 C-1.69 14 0.62 14 3 14 C3.30719041 17.37909451 3.34529892 19.40357459 1.625 22.375 C-2.32260482 24.81875537 -6.47082499 24.8392962 -11 24 C-12.98410221 22.44671775 -13.8896577 21.55296065 -14.38818359 19.0546875 C-14.39156738 18.33539063 -14.39495117 17.61609375 -14.3984375 16.875 C-14.40230469 16.08609375 -14.40617188 15.2971875 -14.41015625 14.484375 C-14.39855469 13.66453125 -14.38695312 12.8446875 -14.375 12 C-14.38660156 11.18015625 -14.39820313 10.3603125 -14.41015625 9.515625 C-14.40435547 8.33226562 -14.40435547 8.33226562 -14.3984375 7.125 C-14.39505371 6.40570313 -14.39166992 5.68640625 -14.38818359 4.9453125 C-13.88643407 2.4308847 -12.9973157 1.56735023 -11 0 C-7.07663045 -1.30778985 -3.97843063 -1.04433804 0 0 Z " fill="#4BC0FB" transform="translate(193,139)"/>
<path d="M0 0 C2.92937654 1.81310142 5.43647949 3.87295899 7 7 C7.41204834 11.63554388 6.87454146 14.30416098 4 18 C0.57840405 20.56619697 -2.84844133 20.50984054 -7 20 C-10.57513152 17.04663048 -12.74364334 14.87994881 -13.375 10.25 C-12.8528401 5.7246142 -11.15770622 4.2328897 -8 1 C-5.09704195 -0.45147903 -3.22738221 -0.37239025 0 0 Z " fill="#FC0909" transform="translate(107,33)"/>
<path d="M0 0 C2.31 0 4.62 0 7 0 C7.85298376 3.67387495 8.10789471 7.0447393 8.0625 10.8125 C8.05347656 11.78832031 8.04445312 12.76414063 8.03515625 13.76953125 C8.02355469 14.50558594 8.01195312 15.24164063 8 16 C8.66 16 9.32 16 10 16 C10 10.72 10 5.44 10 0 C12.31 0 14.62 0 17 0 C16.34938113 8.38955907 15.25101251 16.68015955 14 25 C10.7 25 7.4 25 4 25 C2.25264542 19.53033967 1.43588131 14.26785828 0.875 8.5625 C0.78863281 7.73556641 0.70226562 6.90863281 0.61328125 6.05664062 C0.40328384 4.03833222 0.20085549 2.01923867 0 0 Z " fill="#4CC0FC" transform="translate(161,138)"/>
<path d="M0 0 C2.64 0 5.28 0 8 0 C8 9.9 8 19.8 8 30 C5.36 30 2.72 30 0 30 C0 20.1 0 10.2 0 0 Z " fill="#47BFFD" transform="translate(83,133)"/>
<path d="M0 0 C2.64 0 5.28 0 8 0 C8 9.9 8 19.8 8 30 C5.36 30 2.72 30 0 30 C0 20.1 0 10.2 0 0 Z " fill="#4FC1FD" transform="translate(152,133)"/>
<path d="M0 0 C4.0743356 0.84881992 5.54405875 2.30225596 8 5.625 C8.625 8.625 8.625 8.625 8 11.625 C5.51397551 14.98844489 4.08574477 16.42557749 -0.0625 17.1875 C-3.74345769 16.48263576 -4.87000351 15.7016616 -7 12.625 C-8.0625 9.1875 -8.0625 9.1875 -8 5.625 C-5.59686932 2.20235933 -4.11289267 0.85685264 0 0 Z " fill="#50C2FB" transform="translate(94,54.375)"/>
<path d="M0 0 C4.11289267 0.85685264 5.59686932 2.20235933 8 5.625 C8 9.14633145 7.69441423 11.46764294 5.875 14.5 C2.84264294 16.31941423 0.52133145 16.625 -3 16.625 C-6.42264067 14.22186932 -7.76814736 12.73789267 -8.625 8.625 C-7.58039389 3.61089068 -5.01410932 1.04460611 0 0 Z " fill="#4FC2FB" transform="translate(114,54.375)"/>
<path d="M0 0 C1.875 0.75 1.875 0.75 2.875 1.75 C3.25 4.125 3.25 4.125 2.875 6.75 C0.375 8.4375 0.375 8.4375 -2.125 9.75 C-2.125 10.41 -2.125 11.07 -2.125 11.75 C-2.785 11.75 -3.445 11.75 -4.125 11.75 C-4.125 12.41 -4.125 13.07 -4.125 13.75 C-3.135 14.08 -2.145 14.41 -1.125 14.75 C-0.135 15.41 0.855 16.07 1.875 16.75 C1.875 17.74 1.875 18.73 1.875 19.75 C2.535 19.75 3.195 19.75 3.875 19.75 C3.545 20.41 3.215 21.07 2.875 21.75 C2.545 21.75 2.215 21.75 1.875 21.75 C1.545 24.39 1.215 27.03 0.875 29.75 C-0.115 29.75 -1.105 29.75 -2.125 29.75 C-1.25 24 -1.25 24 -0.125 21.75 C-0.74375 21.481875 -1.3625 21.21375 -2 20.9375 C-4.125 19.75 -4.125 19.75 -6.125 16.75 C-9.68172179 15.5311879 -9.68172179 15.5311879 -13.125 14.75 C-13.75 12.875 -13.75 12.875 -14.125 10.75 C-12.125 8.75 -12.125 8.75 -9 8.625 C-8.05125 8.66625 -7.1025 8.7075 -6.125 8.75 C-5.795 9.41 -5.465 10.07 -5.125 10.75 C-5.186875 9.491875 -5.24875 8.23375 -5.3125 6.9375 C-5.30560372 3.04799613 -5.30560372 3.04799613 -3.875 0.6875 C-2.125 -0.25 -2.125 -0.25 0 0 Z " fill="#E9F8FD" transform="translate(65.125,97.25)"/>
<path d="M0 0 C2.31 0 4.62 0 7 0 C7 7.92 7 15.84 7 24 C4.69 24 2.38 24 0 24 C0 16.08 0 8.16 0 0 Z " fill="#49BFFD" transform="translate(24,139)"/>
<path d="M0 0 C2.31 0 4.62 0 7 0 C7.66 0.66 8.32 1.32 9 2 C8.67 2.33 8.34 2.66 8 3 C8.66 3.33 9.32 3.66 10 4 C10 9.61 10 15.22 10 21 C9.01 21 8.02 21 7 21 C6.67 20.01 6.34 19.02 6 18 C5.67 18.66 5.34 19.32 5 20 C4.34 19.67 3.68 19.34 3 19 C2.67 20.65 2.34 22.3 2 24 C1.67 24 1.34 24 1 24 C0.67 16.08 0.34 8.16 0 0 Z " fill="#75CFFC" transform="translate(64,138)"/>
<path d="M0 0 C2.4375 0.6875 2.4375 0.6875 4.25 3.1875 C4.641875 4.0125 5.03375 4.8375 5.4375 5.6875 C4.4475 7.1725 4.4475 7.1725 3.4375 8.6875 C-0.1875 8.875 -0.1875 8.875 -3.5625 8.6875 C-2.55089152 13.08064793 -2.55089152 13.08064793 0.5625 16.0625 C1.18125 16.26875 1.8 16.475 2.4375 16.6875 C2.1075 18.3375 1.7775 19.9875 1.4375 21.6875 C0.1175 21.3575 -1.2025 21.0275 -2.5625 20.6875 C-2.5625 19.0375 -2.5625 17.3875 -2.5625 15.6875 C-3.20058594 15.69910156 -3.83867187 15.71070312 -4.49609375 15.72265625 C-5.73552734 15.73619141 -5.73552734 15.73619141 -7 15.75 C-8.23556641 15.76740234 -8.23556641 15.76740234 -9.49609375 15.78515625 C-11.5625 15.6875 -11.5625 15.6875 -12.5625 14.6875 C-12.60313832 13.02132885 -12.605221 11.35361905 -12.5625 9.6875 C-10.2525 10.0175 -7.9425 10.3475 -5.5625 10.6875 C-5.81 10.15125 -6.0575 9.615 -6.3125 9.0625 C-6.5625 6.6875 -6.5625 6.6875 -4.9375 3.4375 C-2.5625 0.6875 -2.5625 0.6875 0 0 Z " fill="#EDF7FC" transform="translate(143.5625,97.3125)"/>
<path d="M0 0 C1.98 0 3.96 0 6 0 C6 7.92 6 15.84 6 24 C4.02 24 2.04 24 0 24 C0 16.08 0 8.16 0 0 Z " fill="#45BEFC" transform="translate(35,139)"/>
<path d="M0 0 C1.9375 1.75 1.9375 1.75 3 4 C2.92230782 7.18537946 2.46882797 8.51442817 0.25 10.8125 C-2.47751486 12.25202173 -3.96116668 12.54543162 -7 12 C-9.5216604 9.73920102 -9.95780733 8.29534867 -10.4375 4.9375 C-10 2 -10 2 -8.375 0.0625 C-5.12427252 -1.39177282 -3.36479974 -1.07387226 0 0 Z " fill="#52C2FB" transform="translate(88,73)"/>
<path d="M0 0 C2 2 2 2 2.375 4.875 C2 8 2 8 0.3125 10.375 C-2 12 -2 12 -4.5625 12.4375 C-7 12 -7 12 -8.8125 10.9375 C-10.69021039 7.87386726 -10.43729494 5.49835955 -10 2 C-7.00303875 -1.6885677 -4.34072074 -1.22672543 0 0 Z " fill="#4CC0FB" transform="translate(128,73)"/>
<path d="M0 0 C2.875 0.9375 2.875 0.9375 4.875 3.9375 C5.20002803 7.05776907 5.38651479 9.08497535 3.75 11.8125 C0.99409116 13.46604531 -0.97575452 13.33115568 -4.125 12.9375 C-6 11.8125 -6 11.8125 -7.125 9.9375 C-7.66900387 6.28490261 -7.56274093 4.5941114 -5.5 1.5 C-3.125 -0.0625 -3.125 -0.0625 0 0 Z " fill="#4CC0F9" transform="translate(105.125,72.0625)"/>
<path d="M0 0 C0.99 0 1.98 0 3 0 C3 1.32 3 2.64 3 4 C5.31 4 7.62 4 10 4 C10.33 2.68 10.66 1.36 11 0 C11.99 0.66 12.98 1.32 14 2 C14.30883789 4.01538086 14.30883789 4.01538086 14.22265625 6.46484375 C14.20396484 7.34720703 14.18527344 8.22957031 14.16601562 9.13867188 C14.13185547 10.06228516 14.09769531 10.98589844 14.0625 11.9375 C14.0025121 13.75883464 13.95135067 15.58048716 13.91015625 17.40234375 C13.88058838 18.21179443 13.85102051 19.02124512 13.82055664 19.85522461 C13.85112423 22.30036699 13.85112423 22.30036699 16 25 C15.01 25.33 14.02 25.66 13 26 C13 25.34 13 24.68 13 24 C12.01 23.67 11.02 23.34 10 23 C9.97421875 22.25234375 9.9484375 21.5046875 9.921875 20.734375 C9.7276504 14.78259683 9.7276504 14.78259683 7.25 9.5625 C6.5075 9.046875 5.765 8.53125 5 8 C2.25 6 2.25 6 0 4 C0 2.68 0 1.36 0 0 Z " fill="#F6FBFC" transform="translate(120,138)"/>
<path d="M0 0 C1.38226016 2.76452033 1.09525387 5.0461363 1.0625 8.125 C1.05347656 9.22070312 1.04445312 10.31640625 1.03515625 11.4453125 C1.02355469 12.28835937 1.01195312 13.13140625 1 14 C0.34 14 -0.32 14 -1 14 C-1.33 15.98 -1.66 17.96 -2 20 C-3.32 19.34 -4.64 18.68 -6 18 C-6 12.06 -6 6.12 -6 0 C-3 -1 -3 -1 0 0 Z " fill="#49BFFC" transform="translate(139,142)"/>
<path d="M0 0 C12.25 0 12.25 0 16 1 C16.625 2.875 16.625 2.875 17 5 C16.34 5.66 15.68 6.32 15 7 C14.01 7 13.02 7 12 7 C12 7.66 12 8.32 12 9 C10.35 9 8.7 9 7 9 C6.67 9.66 6.34 10.32 6 11 C5.67 10.01 5.34 9.02 5 8 C4.34 7.731875 3.68 7.46375 3 7.1875 C2.34 6.795625 1.68 6.40375 1 6 C0.25 2.875 0.25 2.875 0 0 Z " fill="#F9FCFB" transform="translate(140,106)"/>
<path d="M0 0 C0.99 0 1.98 0 3 0 C3 1.32 3 2.64 3 4 C5.31 4 7.62 4 10 4 C10.33 2.68 10.66 1.36 11 0 C11.66 0.33 12.32 0.66 13 1 C13 8.92 13 16.84 13 25 C12.01 25.33 11.02 25.66 10 26 C9.34 25.34 8.68 24.68 8 24 C8.66 23.34 9.32 22.68 10 22 C10.57047012 18.94348115 10.52093131 16.06180036 10 13 C7.66942465 10.00354598 5.23610903 8.17314662 2.1875 5.9375 C1.465625 5.298125 0.74375 4.65875 0 4 C0 2.68 0 1.36 0 0 Z " fill="#EEF8FC" transform="translate(11,138)"/>
<path d="M0 0 C4.6 2.2 4.6 2.2 6 5 C6.13415472 7.6723621 6.04318541 10.32250488 6 13 C5.34 12.01 4.68 11.02 4 10 C3.01 10 2.02 10 1 10 C1 10.66 1 11.32 1 12 C0.01 12 -0.98 12 -2 12 C-2 11.34 -2 10.68 -2 10 C-2.66 10 -3.32 10 -4 10 C-4.33 8.35 -4.66 6.7 -5 5 C-5.99 5.495 -5.99 5.495 -7 6 C-7 5.01 -7 4.02 -7 3 C-7.99 3.33 -8.98 3.66 -10 4 C-10 3.34 -10 2.68 -10 2 C-6.27420911 -0.48386059 -4.41288598 -0.3804212 0 0 Z " fill="#4FC1F9" transform="translate(105,138)"/>
<path d="M0 0 C1.32 0.66 2.64 1.32 4 2 C4.08075665 4.29109597 4.13907731 6.58299267 4.1875 8.875 C4.22230469 10.15117187 4.25710937 11.42734375 4.29296875 12.7421875 C4.19628906 13.81726563 4.09960938 14.89234375 4 16 C3.01 16.66 2.02 17.32 1 18 C0.67 16.68 0.34 15.36 0 14 C-2.31 14 -4.62 14 -7 14 C-7 15.98 -7 17.96 -7 20 C-7.99 20 -8.98 20 -10 20 C-10 17.36 -10 14.72 -10 12 C-6.7 12 -3.4 12 0 12 C-0.185625 10.39125 -0.37125 8.7825 -0.5625 7.125 C-1.125 2.25 -1.125 2.25 0 0 Z " fill="#FAFDFB" transform="translate(196,139)"/>
<path d="M0 0 C1.32 0.33 2.64 0.66 4 1 C3.96519531 2.12019531 3.93039063 3.24039063 3.89453125 4.39453125 C3.86639161 5.86717251 3.83909163 7.33982998 3.8125 8.8125 C3.78736328 9.55048828 3.76222656 10.28847656 3.73632812 11.04882812 C3.61931563 15.32017538 3.61931563 15.32017538 5.51171875 19.01171875 C6.00285156 19.33785156 6.49398437 19.66398437 7 20 C3.54754176 22.30163882 2.05261287 22.34490322 -2 22 C-2.66 21.34 -3.32 20.68 -4 20 C-3.34 18.02 -2.68 16.04 -2 14 C-1.34 14 -0.68 14 0 14 C0 9.38 0 4.76 0 0 Z " fill="#88D5FB" transform="translate(140,142)"/>
<path d="M0 0 C0.33 0.66 0.66 1.32 1 2 C1.99 2 2.98 2 4 2 C4.01417969 2.59167969 4.02835937 3.18335938 4.04296875 3.79296875 C4.3051306 8.13635297 4.51597684 10.39824148 7.3125 13.875 C9.87101939 15.98001021 9.87101939 15.98001021 12.3125 17.4375 C14 19 14 19 14.25 22.1875 C14.1675 23.115625 14.085 24.04375 14 25 C13.01 24.67 12.02 24.34 11 24 C11 22.35 11 20.7 11 19 C8.69 19 6.38 19 4 19 C3.71125 18.195625 3.4225 17.39125 3.125 16.5625 C2.26737432 13.8673532 2.26737432 13.8673532 0 13 C0 8.71 0 4.42 0 0 Z " fill="#F9FCFC" transform="translate(0,134)"/>
<path d="M0 0 C2.01822917 0.06510417 4.03645833 0.13020833 6.0546875 0.1953125 C6.94031839 3.98605787 7.17150051 7.48227148 7.15234375 11.37109375 C7.14912109 12.52802734 7.14589844 13.68496094 7.14257812 14.87695312 C7.13419922 16.07513672 7.12582031 17.27332031 7.1171875 18.5078125 C7.11267578 19.72533203 7.10816406 20.94285156 7.10351562 22.19726562 C7.09175328 25.19666476 7.07531576 28.19596339 7.0546875 31.1953125 C6.7246875 31.1953125 6.3946875 31.1953125 6.0546875 31.1953125 C6.0546875 23.2753125 6.0546875 15.3553125 6.0546875 7.1953125 C3.4146875 7.1953125 0.7746875 7.1953125 -1.9453125 7.1953125 C-2.2753125 7.8553125 -2.6053125 8.5153125 -2.9453125 9.1953125 C-3.5703125 5.8203125 -3.5703125 5.8203125 -3.9453125 2.1953125 C-1.9453125 0.1953125 -1.9453125 0.1953125 0 0 Z " fill="#BBE6FC" transform="translate(24.9453125,131.8046875)"/>
<path d="M0 0 C0.33 0 0.66 0 1 0 C1 8.91 1 17.82 1 27 C3.31 27 5.62 27 8 27 C8 25.35 8 23.7 8 22 C8.66 22.66 9.32 23.32 10 24 C9.67 25.32 9.34 26.64 9 28 C5.7 28 2.4 28 -1 28 C-1.33 27.34 -1.66 26.68 -2 26 C-4.32156597 25.59270772 -6.6568787 25.25561323 -9 25 C-9 24.67 -9 24.34 -9 24 C-6.69 24 -4.38 24 -2 24 C-2.01047363 23.37955811 -2.02094727 22.75911621 -2.03173828 22.11987305 C-2.07330886 19.30912323 -2.09932933 16.4984381 -2.125 13.6875 C-2.14175781 12.71103516 -2.15851562 11.73457031 -2.17578125 10.72851562 C-2.18222656 9.79072266 -2.18867187 8.85292969 -2.1953125 7.88671875 C-2.20578613 7.02264404 -2.21625977 6.15856934 -2.22705078 5.26831055 C-2 3 -2 3 0 0 Z " fill="#CFEEFC" transform="translate(63,139)"/>
<path d="M0 0 C0.66 0 1.32 0 2 0 C2.99 6.93 3.98 13.86 5 21 C8.3 21 11.6 21 15 21 C15 21.33 15 21.66 15 22 C7.15597666 22.72526532 -0.19744856 23.21074074 -8 22 C-8 21.67 -8 21.34 -8 21 C-5.36 21 -2.72 21 0 21 C0 14.07 0 7.14 0 0 Z " fill="#F5FBFC" transform="translate(160,142)"/>
<path d="M0 0 C4.56278027 -0.36995516 4.56278027 -0.36995516 6.625 1.375 C7.07875 1.91125 7.5325 2.4475 8 3 C10.81509993 5.2773501 10.81509993 5.2773501 14 5 C14 6.32 14 7.64 14 9 C12.35 9 10.7 9 9 9 C9 7.68 9 6.36 9 5 C7.89163577 6.88316159 7.89163577 6.88316159 7 9 C7.33 9.66 7.66 10.32 8 11 C7.01 11 6.02 11 5 11 C5 11.66 5 12.32 5 13 C3.68 13 2.36 13 1 13 C1.33 11.02 1.66 9.04 2 7 C2.66 7 3.32 7 4 7 C4 6.34 4 5.68 4 5 C2.68 4.67 1.36 4.34 0 4 C0 2.68 0 1.36 0 0 Z " fill="#C4E9F7" transform="translate(161,114)"/>
<path d="M0 0 C2.64 0 5.28 0 8 0 C8 2.64 8 5.28 8 8 C7.195625 8.12375 6.39125 8.2475 5.5625 8.375 C4.716875 8.58125 3.87125 8.7875 3 9 C1.85345518 11.29308963 1.80270883 12.79909656 1.68359375 15.3515625 C1.64169922 16.20234375 1.59980469 17.053125 1.55664062 17.9296875 C1.51732422 18.81914062 1.47800781 19.70859375 1.4375 20.625 C1.39431641 21.5221875 1.35113281 22.419375 1.30664062 23.34375 C1.20043139 25.56234283 1.09838806 27.7810488 1 30 C0.67 30 0.34 30 0 30 C0 20.1 0 10.2 0 0 Z " fill="#60C8FB" transform="translate(83,133)"/>
<path d="M0 0 C5.5952381 0.5952381 5.5952381 0.5952381 8 3 C8.25 5.5 8.25 5.5 8 8 C6 10 6 10 3 10.25 C0 10 0 10 -2 8 C-1.42307692 1.42307692 -1.42307692 1.42307692 0 0 Z " fill="#4FC2F9" transform="translate(131,86)"/>
<path d="M0 0 C1.75 1.3125 1.75 1.3125 2.75 3.3125 C2.88415472 5.9848621 2.79318541 8.63500488 2.75 11.3125 C0.44 10.9825 -1.87 10.6525 -4.25 10.3125 C-4.25 9.6525 -4.25 8.9925 -4.25 8.3125 C-5.24 7.9825 -6.23 7.6525 -7.25 7.3125 C-7.5625 5 -7.5625 5 -7.25 2.3125 C-3.36904762 -1.02943122 -3.36904762 -1.02943122 0 0 Z " fill="#4CC2FB" transform="translate(193.25,139.6875)"/>
<path d="M0 0 C1.32 0.33 2.64 0.66 4 1 C4.33 2.65 4.66 4.3 5 6 C4.34 6 3.68 6 3 6 C3 8.64 3 11.28 3 14 C2.01 14 1.02 14 0 14 C0.33 12.02 0.66 10.04 1 8 C0.113125 8.33 -0.77375 8.66 -1.6875 9 C-4.70923347 9.91222143 -6.88373706 10.18330958 -10 10 C-10 8.68 -10 7.36 -10 6 C-9.21625 5.855625 -8.4325 5.71125 -7.625 5.5625 C-5.03578982 5.12201075 -5.03578982 5.12201075 -3 4 C-2.34 4.33 -1.68 4.66 -1 5 C-0.67 3.35 -0.34 1.7 0 0 Z " fill="#B7E5F9" transform="translate(43,113)"/>
<path d="M0 0 C2.4375 0.8125 2.4375 0.8125 4.4375 2.8125 C4.6875 5.3125 4.6875 5.3125 4.4375 7.8125 C2.4375 9.8125 2.4375 9.8125 -0.5625 10.0625 C-3.5625 9.8125 -3.5625 9.8125 -5.5625 7.8125 C-5.93046448 4.94237704 -5.93759409 3.40475382 -4.375 0.9375 C-2.5625 -0.1875 -2.5625 -0.1875 0 0 Z " fill="#4AC1FA" transform="translate(94.5625,86.1875)"/>
<path d="M0 0 C2.4375 0.8125 2.4375 0.8125 4.4375 2.8125 C4.6875 5.3125 4.6875 5.3125 4.4375 7.8125 C2.4375 9.8125 2.4375 9.8125 -0.5625 10.0625 C-3.5625 9.8125 -3.5625 9.8125 -5.5625 7.8125 C-5.93046448 4.94237704 -5.93759409 3.40475382 -4.375 0.9375 C-2.5625 -0.1875 -2.5625 -0.1875 0 0 Z " fill="#50C2FA" transform="translate(114.5625,86.1875)"/>
<path d="M0 0 C3.0625 0.125 3.0625 0.125 5.0625 1.125 C5.1875 4 5.1875 4 5.0625 7.125 C3.0625 9.125 3.0625 9.125 0.0625 9.4375 C-0.9275 9.334375 -1.9175 9.23125 -2.9375 9.125 C-4.9375 6.125 -4.9375 6.125 -4.625 3.5 C-3.65688776 0.15561224 -3.65688776 0.15561224 0 0 Z " fill="#4DC1FA" transform="translate(73.9375,86.875)"/>
<path d="M0 0 C0.33 0.66 0.66 1.32 1 2 C1.99 2.33 2.98 2.66 4 3 C3.18273437 3.30808594 2.36546875 3.61617187 1.5234375 3.93359375 C-1.13204004 5.67566344 -1.13204004 5.67566344 -1.42871094 7.90283203 C-1.52954664 10.30573651 -1.48394828 12.66000259 -1.375 15.0625 C-1.36082031 15.89072266 -1.34664062 16.71894531 -1.33203125 17.57226562 C-1.32764819 21.93592776 -1.32764819 21.93592776 0 26 C-1.98 25.67 -3.96 25.34 -6 25 C-4.86174031 7.83624211 -4.86174031 7.83624211 -3 2 C-2.01 1.34 -1.02 0.68 0 0 Z " fill="#E9F7FC" transform="translate(181,136)"/>
<path d="M0 0 C0.99 0.33 1.98 0.66 3 1 C3.144375 2.11375 3.28875 3.2275 3.4375 4.375 C3.78372035 7.82142047 3.78372035 7.82142047 5 10 C2.375 11.25 2.375 11.25 -1 12 C-4.375 10.25 -4.375 10.25 -7 8 C-7 7.34 -7 6.68 -7 6 C-6.34 6 -5.68 6 -5 6 C-5.33 5.01 -5.66 4.02 -6 3 C-5.195625 2.690625 -4.39125 2.38125 -3.5625 2.0625 C-1.10919595 1.23664655 -1.10919595 1.23664655 0 0 Z " fill="#F8FCFB" transform="translate(68,103)"/>
<path d="M0 0 C2.31 0 4.62 0 7 0 C6.91276622 1.77174819 6.80458345 3.54247377 6.6875 5.3125 C6.62949219 6.29863281 6.57148438 7.28476563 6.51171875 8.30078125 C5.95377187 11.24384457 5.31459868 12.18182999 3 14 C-0.13269705 10.86730295 -0.05494397 8.02671577 -0.0625 3.75 C-0.0315625 1.89375 -0.0315625 1.89375 0 0 Z " fill="#56C4FB" transform="translate(171,138)"/>
<path d="M0 0 C3.16115776 1.36983503 3.9927092 1.9890638 6 5 C5.01 5.495 5.01 5.495 4 6 C4 7.98 4 9.96 4 12 C2.02 12.99 2.02 12.99 0 14 C-0.33 12.35 -0.66 10.7 -1 9 C-0.01 8.67 0.98 8.34 2 8 C2 7.34 2 6.68 2 6 C0.68 6 -0.64 6 -2 6 C-1.125 1.125 -1.125 1.125 0 0 Z " fill="#C5EAF9" transform="translate(123,113)"/>
<path d="M0 0 C2.6875 0.875 2.6875 0.875 5 2 C5.042721 3.66611905 5.04063832 5.33382885 5 7 C4 8 4 8 1 8.125 C-2 8 -2 8 -3 7 C-3.25 4.5625 -3.25 4.5625 -3 2 C-2.01 1.34 -1.02 0.68 0 0 Z " fill="#55C3F9" transform="translate(103,97)"/>
<path d="M0 0 C1.4540625 0.0309375 1.4540625 0.0309375 2.9375 0.0625 C3.625 2.375 3.625 2.375 3.9375 5.0625 C2.5 6.875 2.5 6.875 0.9375 8.0625 C-1.5375 7.0725 -1.5375 7.0725 -4.0625 6.0625 C-4.105221 4.39638095 -4.10313832 2.72867115 -4.0625 1.0625 C-3.0625 0.0625 -3.0625 0.0625 0 0 Z " fill="#50C1FA" transform="translate(124.0625,97.9375)"/>
<path d="M0 0 C1 1 1 1 1.125 3.5 C1 6 1 6 0 7 C-2.4375 7.1875 -2.4375 7.1875 -5 7 C-5.66 6.34 -6.32 5.68 -7 5 C-6.75 2.4375 -6.75 2.4375 -6 0 C-3.49749232 -1.25125384 -2.59701335 -0.83774624 0 0 Z " fill="#53C3FA" transform="translate(67,98)"/>
<path d="M0 0 C3 0.125 3 0.125 4 1.125 C4.125 3.625 4.125 3.625 4 6.125 C3 7.125 3 7.125 -0.0625 7.1875 C-1.031875 7.166875 -2.00125 7.14625 -3 7.125 C-3.38133299 5.1335944 -3.71325582 3.13220923 -4 1.125 C-3 0.125 -3 0.125 0 0 Z " fill="#50C2FA" transform="translate(84,97.875)"/>
<path d="M0 0 C4.66666667 0 9.33333333 0 14 0 C12.37660195 1.70884005 10.70680947 3.37446717 9 5 C8.34 5 7.68 5 7 5 C7 11.6 7 18.2 7 25 C6.67 25 6.34 25 6 25 C5.67 17.41 5.34 9.82 5 2 C3.35 1.67 1.7 1.34 0 1 C0 0.67 0 0.34 0 0 Z " fill="#69CAFC" transform="translate(35,138)"/>
<path d="M0 0 C2.5625 0.1875 2.5625 0.1875 4.5625 2.1875 C4.02678571 5.72321429 4.02678571 5.72321429 2.5625 7.1875 C0.0625 7.3125 0.0625 7.3125 -2.4375 7.1875 C-3.4375 6.1875 -3.4375 6.1875 -3.5625 3.6875 C-3.39599509 0.35740177 -3.31519894 0.2550153 0 0 Z " fill="#4CC0FA" transform="translate(143.4375,97.8125)"/>
<path d="M0 0 C2 2 2 2 2.1953125 3.9453125 C2.13020833 5.96354167 2.06510417 7.98177083 2 10 C1.34 9.01 0.68 8.02 0 7 C-0.99 7 -1.98 7 -3 7 C-3 7.66 -3 8.32 -3 9 C-3.99 9 -4.98 9 -6 9 C-6 8.34 -6 7.68 -6 7 C-6.66 7 -7.32 7 -8 7 C-8 5.35 -8 3.7 -8 2 C-7.01 2 -6.02 2 -5 2 C-4.67 2.66 -4.34 3.32 -4 4 C-3.01 3.67 -2.02 3.34 -1 3 C-0.67 2.01 -0.34 1.02 0 0 Z " fill="#5BC4FA" transform="translate(109,141)"/>
<path d="M0 0 C2.64 0 5.28 0 8 0 C9.22517308 5.66642551 9.09228867 11.23708518 9 17 C8.67 17 8.34 17 8 17 C7.98582031 16.40832031 7.97164062 15.81664062 7.95703125 15.20703125 C7.68961688 10.77662554 7.51557618 8.6081155 4.5625 5.125 C3.716875 4.42375 2.87125 3.7225 2 3 C1.34 2.01 0.68 1.02 0 0 Z " fill="#F6FCFA" transform="translate(14,143)"/>
<path d="M0 0 C1.65 0 3.3 0 5 0 C5 0.99 5 1.98 5 3 C5.66 3 6.32 3 7 3 C6.67 3.66 6.34 4.32 6 5 C5.67 5 5.34 5 5 5 C4.67 7.64 4.34 10.28 4 13 C3.01 13 2.02 13 1 13 C1.875 7.25 1.875 7.25 3 5 C2.01 4.67 1.02 4.34 0 4 C0 2.68 0 1.36 0 0 Z " fill="#B4E3FA" transform="translate(62,114)"/>
<path d="M0 0 C2.3431213 0.25561323 4.67843403 0.59270772 7 1 C8.20029908 3.40059817 8.11459743 4.89360649 8.09765625 7.5703125 C8.09443359 8.46621094 8.09121094 9.36210937 8.08789062 10.28515625 C8.07951172 11.22230469 8.07113281 12.15945312 8.0625 13.125 C8.05798828 14.06988281 8.05347656 15.01476562 8.04882812 15.98828125 C8.03702357 18.32558387 8.02055759 20.66276061 8 23 C7.67 23 7.34 23 7 23 C6.93941406 21.72382813 6.87882812 20.44765625 6.81640625 19.1328125 C6.73200432 17.46352984 6.64735614 15.79425963 6.5625 14.125 C6.52318359 13.28324219 6.48386719 12.44148437 6.44335938 11.57421875 C6.40146484 10.76855469 6.35957031 9.96289062 6.31640625 9.1328125 C6.27974854 8.38918457 6.24309082 7.64555664 6.20532227 6.87939453 C6.10044135 4.91135688 6.10044135 4.91135688 5 3 C4.34 2.835 3.68 2.67 3 2.5 C2.34 2.335 1.68 2.17 1 2 C0.67 1.34 0.34 0.68 0 0 Z " fill="#59C5FB" transform="translate(73,138)"/>
<path d="M0 0 C3.3 0 6.6 0 10 0 C10 0.66 10 1.32 10 2 C7.69 2 5.38 2 3 2 C3 3.98 3 5.96 3 8 C2.01 8 1.02 8 0 8 C0 5.36 0 2.72 0 0 Z " fill="#DAF1FC" transform="translate(101,151)"/>
<path d="M0 0 C0.33 0 0.66 0 1 0 C1.07347656 1.68029297 1.07347656 1.68029297 1.1484375 3.39453125 C1.22347856 4.86721203 1.29902582 6.33986707 1.375 7.8125 C1.4059375 8.55048828 1.436875 9.28847656 1.46875 10.04882812 C1.67346148 13.81893115 1.86433827 15.79650741 4 19 C3.01 19.33 2.02 19.66 1 20 C1 19.34 1 18.68 1 18 C0.01 17.67 -0.98 17.34 -2 17 C-2 14.03 -2 11.06 -2 8 C-1.67 8 -1.34 8 -1 8 C-0.67 5.36 -0.34 2.72 0 0 Z " fill="#C8EBF9" transform="translate(132,144)"/>
<path d="M0 0 C2.125 0.375 2.125 0.375 4 1 C4.625 2.875 4.625 2.875 5 5 C4.34 5.66 3.68 6.32 3 7 C0.875 6.625 0.875 6.625 -1 6 C-1.625 4.125 -1.625 4.125 -2 2 C-1.34 1.34 -0.68 0.68 0 0 Z " fill="#5BC5FA" transform="translate(53,106)"/>
<path d="M0 0 C2.125 0.375 2.125 0.375 4 1 C4.625 2.875 4.625 2.875 5 5 C4.34 5.66 3.68 6.32 3 7 C0.875 6.625 0.875 6.625 -1 6 C-1.625 4.125 -1.625 4.125 -2 2 C-1.34 1.34 -0.68 0.68 0 0 Z " fill="#5BC5FB" transform="translate(152,106)"/>
<path d="M0 0 C1.32 0 2.64 0 4 0 C4 0.99 4 1.98 4 3 C7.3 3 10.6 3 14 3 C14 3.33 14 3.66 14 4 C6.15597666 4.72526532 -1.19744856 5.21074074 -9 4 C-9 3.67 -9 3.34 -9 3 C-6.03 3 -3.06 3 0 3 C0 2.01 0 1.02 0 0 Z " fill="#DFF3FD" transform="translate(161,160)"/>
<path d="M0 0 C1.98 0 3.96 0 6 0 C6.33 2.31 6.66 4.62 7 7 C8.32 7.33 9.64 7.66 11 8 C11 8.66 11 9.32 11 10 C8.36 10 5.72 10 3 10 C3 9.01 3 8.02 3 7 C3.66 7 4.32 7 5 7 C5 5.02 5 3.04 5 1 C3.35 1 1.7 1 0 1 C0 0.67 0 0.34 0 0 Z " fill="#44BDFD" transform="translate(5,153)"/>
<path d="M0 0 C0.556875 0.391875 1.11375 0.78375 1.6875 1.1875 C0.6975 1.8475 -0.2925 2.5075 -1.3125 3.1875 C-1.3125 4.1775 -1.3125 5.1675 -1.3125 6.1875 C-3.2925 6.5175 -5.2725 6.8475 -7.3125 7.1875 C-7.625 4.875 -7.625 4.875 -7.3125 2.1875 C-3.38928019 -1.19082817 -3.38928019 -1.19082817 0 0 Z " fill="#7BCFFA" transform="translate(193.3125,139.8125)"/>
<path d="M0 0 C0.33 0.66 0.66 1.32 1 2 C1.99 2.33 2.98 2.66 4 3 C3.19175781 3.33644531 2.38351563 3.67289063 1.55078125 4.01953125 C-1.37520262 5.84441143 -1.37520262 5.84441143 -1.70703125 9.57421875 C-1.76660733 10.94446863 -1.80097482 12.31600403 -1.8125 13.6875 C-1.83763672 14.38939453 -1.86277344 15.09128906 -1.88867188 15.81445312 C-1.94744448 17.54236781 -1.9766097 19.2712443 -2 21 C-2.33 21 -2.66 21 -3 21 C-3.19600577 18.77156512 -3.38146569 16.54220107 -3.5625 14.3125 C-3.66691406 13.07113281 -3.77132812 11.82976562 -3.87890625 10.55078125 C-3.98638812 7.39913549 -3.98396268 4.9841491 -3 2 C-2.01 1.34 -1.02 0.68 0 0 Z " fill="#DAF2FC" transform="translate(181,136)"/>
<path d="M0 0 C2.9375 0.8125 2.9375 0.8125 4.9375 2.8125 C4.5625 4.9375 4.5625 4.9375 3.9375 6.8125 C1.9575 5.8225 -0.0225 4.8325 -2.0625 3.8125 C-2.0625 3.1525 -2.0625 2.4925 -2.0625 1.8125 C-3.3825 2.1425 -4.7025 2.4725 -6.0625 2.8125 C-4.08959835 0.07235882 -3.46862789 -0.21236497 0 0 Z " fill="#5BC5FB" transform="translate(125.0625,72.1875)"/>
<path d="M0 0 C3.3 0 6.6 0 10 0 C7 2 7 2 3 2 C3 3.98 3 5.96 3 8 C2.01 8 1.02 8 0 8 C0 5.36 0 2.72 0 0 Z " fill="#D6F1FB" transform="translate(186,151)"/>
<path d="M0 0 C1.98 0 3.96 0 6 0 C6 1.65 6 3.3 6 5 C4.34385343 5.38218767 2.67542976 5.71395102 1 6 C0 5 0 5 -0.0625 2.4375 C-0.041875 1.633125 -0.02125 0.82875 0 0 Z " fill="#57C4FA" transform="translate(111,107)"/>
<path d="M0 0 C2.0625 0.4375 2.0625 0.4375 4 1 C4 2.65 4 4.3 4 6 C2.125 6.625 2.125 6.625 0 7 C-0.66 6.34 -1.32 5.68 -2 5 C-1.46428571 1.46428571 -1.46428571 1.46428571 0 0 Z " fill="#55C4FB" transform="translate(73,106)"/>
<path d="M0 0 C1.2065625 0.0309375 1.2065625 0.0309375 2.4375 0.0625 C2.4375 1.7125 2.4375 3.3625 2.4375 5.0625 C0.7875 5.3925 -0.8625 5.7225 -2.5625 6.0625 C-2.94468767 4.40635343 -3.27645102 2.73792976 -3.5625 1.0625 C-2.5625 0.0625 -2.5625 0.0625 0 0 Z " fill="#54C3FA" transform="translate(94.5625,106.9375)"/>
<path d="M0 0 C2.64 0 5.28 0 8 0 C8 1.32 8 2.64 8 4 C5.36 4 2.72 4 0 4 C0 2.68 0 1.36 0 0 Z " fill="#59C6FC" transform="translate(24,133)"/>
<path d="M0 0 C1.65 0 3.3 0 5 0 C5.625 1.875 5.625 1.875 6 4 C5.34 4.66 4.68 5.32 4 6 C1.875 5.625 1.875 5.625 0 5 C0 3.35 0 1.7 0 0 Z " fill="#4EC0FB" transform="translate(131,107)"/>
<path d="M0 0 C0.99 0 1.98 0 3 0 C3 1.32 3 2.64 3 4 C5.31 4 7.62 4 10 4 C8.35 5.32 6.7 6.64 5 8 C2.5 6.25 2.5 6.25 0 4 C0 2.68 0 1.36 0 0 Z " fill="#D0EEFB" transform="translate(120,138)"/>
<path d="M0 0 C0.33 0.99 0.66 1.98 1 3 C1.66 3.33 2.32 3.66 3 4 C2.01 4.33 1.02 4.66 0 5 C0.33 5.99 0.66 6.98 1 8 C2.98 8 4.96 8 7 8 C7 8.33 7 8.66 7 9 C0.25 9.125 0.25 9.125 -2 8 C-2.625 4.9375 -2.625 4.9375 -3 2 C-2.01 1.34 -1.02 0.68 0 0 Z " fill="#57C4FC" transform="translate(118,155)"/>
<path d="M0 0 C-0.57344937 2.86724686 -0.8614515 3.8614515 -3 6 C-3.66 5.67 -4.32 5.34 -5 5 C-5.66 5.99 -6.32 6.98 -7 8 C-7.36275695 3.52599758 -7.36275695 3.52599758 -5.75 1.1875 C-4 0 -4 0 0 0 Z " fill="#5AC4FA" transform="translate(96,86)"/>
<path d="M0 0 C0.33 0.66 0.66 1.32 1 2 C1.99 2.33 2.98 2.66 4 3 C3.67 4.65 3.34 6.3 3 8 C0.36 8 -2.28 8 -5 8 C-5 7.67 -5 7.34 -5 7 C-4.01 6.67 -3.02 6.34 -2 6 C-0.77479736 2.99152582 -0.77479736 2.99152582 0 0 Z " fill="#44BCFB" transform="translate(104,155)"/>
<path d="M0 0 C0.1875 3.125 0.1875 3.125 0 6 C-0.99 5.67 -1.98 5.34 -3 5 C-3 3.35 -3 1.7 -3 0 C-5.31 0 -7.62 0 -10 0 C-10 -0.33 -10 -0.66 -10 -1 C-3.375 -2.25 -3.375 -2.25 0 0 Z " fill="#D2EFFB" transform="translate(14,153)"/>
<path d="M0 0 C0.1875 3.125 0.1875 3.125 0 6 C-0.99 5.67 -1.98 5.34 -3 5 C-3 3.35 -3 1.7 -3 0 C-5.31 0 -7.62 0 -10 0 C-10 -0.33 -10 -0.66 -10 -1 C-3.375 -2.25 -3.375 -2.25 0 0 Z " fill="#D4F0FB" transform="translate(123,153)"/>
<path d="M0 0 C1.98 0.495 1.98 0.495 4 1 C3.67 2.65 3.34 4.3 3 6 C1.68 5.67 0.36 5.34 -1 5 C-0.67 3.35 -0.34 1.7 0 0 Z " fill="#64C8FA" transform="translate(43,113)"/>
<path d="M0 0 C1.32 0.66 2.64 1.32 4 2 C3.34 3.32 2.68 4.64 2 6 C0.68 5.34 -0.64 4.68 -2 4 C-1.34 2.68 -0.68 1.36 0 0 Z " fill="#5DC6FB" transform="translate(103,113)"/>
<path d="M0 0 C0.66 0.33 1.32 0.66 2 1 C2.59355614 3.64860427 2.74209269 6.29197322 3 9 C0.36 9 -2.28 9 -5 9 C-5 8.67 -5 8.34 -5 8 C-3.35 7.67 -1.7 7.34 0 7 C0 4.69 0 2.38 0 0 Z " fill="#43BCFC" transform="translate(189,154)"/>
<path d="M0 0 C2.31 0 4.62 0 7 0 C6.67 3.3 6.34 6.6 6 10 C5.67 10 5.34 10 5 10 C4.67 7.36 4.34 4.72 4 2 C3.01 1.67 2.02 1.34 1 1 C0.67 1.99 0.34 2.98 0 4 C0 2.68 0 1.36 0 0 Z " fill="#6DCCFB" transform="translate(161,138)"/>
<path d="M0 0 C1.33332095 2.6666419 0.67102033 4.16680303 0 7 C-1.32 7 -2.64 7 -4 7 C-3.67 5.02 -3.34 3.04 -3 1 C-2.01 0.67 -1.02 0.34 0 0 Z " fill="#B6E4FB" transform="translate(166,120)"/>
<path d="M0 0 C1.65 0 3.3 0 5 0 C4.67 1.65 4.34 3.3 4 5 C2.68 4.67 1.36 4.34 0 4 C0 2.68 0 1.36 0 0 Z " fill="#5CC6FA" transform="translate(161,114)"/>
<path d="M0 0 C0.99 0 1.98 0 3 0 C3 1.32 3 2.64 3 4 C5.31 4 7.62 4 10 4 C10 4.33 10 4.66 10 5 C3.9453125 5.9765625 3.9453125 5.9765625 2 6 C1.34 5.34 0.68 4.68 0 4 C0 2.68 0 1.36 0 0 Z " fill="#C4EAFC" transform="translate(11,138)"/>
<path d="M0 0 C0.66 0.33 1.32 0.66 2 1 C2 3.15634036 1.5534764 4.92446352 1 7 C0.01 7 -0.98 7 -2 7 C-2.6875 5.1875 -2.6875 5.1875 -3 3 C-1.5625 1.25 -1.5625 1.25 0 0 Z " fill="#56C6FA" transform="translate(7,133)"/>
<path d="M0 0 C1.32 0 2.64 0 4 0 C3.67 1.65 3.34 3.3 3 5 C1.68 4.67 0.36 4.34 -1 4 C-0.67 2.68 -0.34 1.36 0 0 Z " fill="#5AC5F9" transform="translate(142,114)"/>
<path d="M0 0 C1.32 0.66 2.64 1.32 4 2 C3.34 3.32 2.68 4.64 2 6 C1.01 5.67 0.02 5.34 -1 5 C-0.67 3.35 -0.34 1.7 0 0 Z " fill="#57C5F9" transform="translate(83,113)"/>
<path d="M0 0 C1.65 0 3.3 0 5 0 C4.67 1.65 4.34 3.3 4 5 C2.68 4.67 1.36 4.34 0 4 C0 2.68 0 1.36 0 0 Z " fill="#5AC5F9" transform="translate(62,114)"/>
<path d="M0 0 C0.66 1.32 1.32 2.64 2 4 C2.763125 4 3.52625 4 4.3125 4 C6.20833333 4 8.10416667 4 10 4 C8 6 8 6 5.8359375 6.1953125 C4.61777344 6.16050781 4.61777344 6.16050781 3.375 6.125 C2.55773437 6.10695313 1.74046875 6.08890625 0.8984375 6.0703125 C0.27195313 6.04710938 -0.35453125 6.02390625 -1 6 C-1.33 5.34 -1.66 4.68 -2 4 C-1.0625 1.875 -1.0625 1.875 0 0 Z " fill="#DDF2FB" transform="translate(139,100)"/>
<path d="M0 0 C0.66 0.99 1.32 1.98 2 3 C0.29171079 5.10633718 -0.52148416 5.93801608 -3.26171875 6.29296875 C-4.06222656 6.25816406 -4.86273438 6.22335938 -5.6875 6.1875 C-6.49574219 6.16042969 -7.30398437 6.13335937 -8.13671875 6.10546875 C-8.75160156 6.07066406 -9.36648438 6.03585938 -10 6 C-10 5.67 -10 5.34 -10 5 C-7.69 5 -5.38 5 -3 5 C-2.67 4.01 -2.34 3.02 -2 2 C-1.34 2.33 -0.68 2.66 0 3 C0 2.01 0 1.02 0 0 Z " fill="#61C9F9" transform="translate(19,158)"/>
<path d="M0 0 C0.66 0 1.32 0 2 0 C2.1875 2.375 2.1875 2.375 2 5 C1.01 5.66 0.02 6.32 -1 7 C-1.66 5.35 -2.32 3.7 -3 2 C-2.01 2 -1.02 2 0 2 C0 1.34 0 0.68 0 0 Z " fill="#5CC5FB" transform="translate(137,89)"/>
<path d="M0 0 C0.99 0.33 1.98 0.66 3 1 C3 2.32 3 3.64 3 5 C1.35 4.67 -0.3 4.34 -2 4 C-1.34 2.68 -0.68 1.36 0 0 Z " fill="#52C3FA" transform="translate(123,113)"/>
<path d="M0 0 C1.32 0.33 2.64 0.66 4 1 C4 2.32 4 3.64 4 5 C2.68 5 1.36 5 0 5 C0 3.35 0 1.7 0 0 Z " fill="#A4E0F9" transform="translate(181,122)"/>
<path d="M0 0 C0.99 1.485 0.99 1.485 2 3 C4.55183404 4.20450304 4.55183404 4.20450304 7 5 C5.02 5.99 5.02 5.99 3 7 C2.01 6.34 1.02 5.68 0 5 C-0.1875 2.375 -0.1875 2.375 0 0 Z " fill="#59C7FC" transform="translate(120,99)"/>
<path d="M0 0 C-0.99 0.33 -1.98 0.66 -3 1 C-3 1.66 -3 2.32 -3 3 C-3.99 3 -4.98 3 -6 3 C-6 2.34 -6 1.68 -6 1 C-6.66 0.67 -7.32 0.34 -8 0 C-5.13822943 -1.43088528 -3.06624227 -0.59991697 0 0 Z " fill="#63C8FA" transform="translate(108,73)"/>
<path d="M0 0 C1.98 0 3.96 0 6 0 C6 1.65 6 3.3 6 5 C5.34 4.34 4.68 3.68 4 3 C3.34 3.66 2.68 4.32 2 5 C2 3.68 2 2.36 2 1 C1.34 0.67 0.68 0.34 0 0 Z " fill="#40BDFA" transform="translate(114,153)"/>
<path d="M0 0 C0.99 0 1.98 0 3 0 C3 2.31 3 4.62 3 7 C2.67 6.34 2.34 5.68 2 5 C1.34 5 0.68 5 0 5 C0 3.35 0 1.7 0 0 Z " fill="#A5DFFC" transform="translate(101,143)"/>
</svg>
